<svg xmlns="http://www.w3.org/2000/svg" width="327" height="48" viewBox="0 0 327 48" fill="none"><g clip-path="url(#clip0_4656_2884)"><path d="M0 0V47.9836H327V0H0Z" fill="#009ECC"></path><path fill-rule="evenodd" clip-rule="evenodd" d="M268.536 20.5153L273.67 25.096L268.422 29.5787L268.536 20.5153ZM169.782 13.2024H175.455L175.603 29.9876L182.551 29.8404V35.2719H169.766V13.2187H169.782V13.2024ZM187.08 20.7116L190.677 13.366H196.416L205.441 35.2555L198.672 35.1247L196.612 29.9549L189.091 30.0694L186.639 35.2555H182.584V29.6114L187.097 20.7116H187.08ZM193.212 19.9263L195.337 26.1104H190.759L193.228 19.9263H193.212ZM200.373 13.2842H219.012L219.094 18.3885H212.815V35.0101L206.553 35.0919L206.7 18.3885L200.356 18.5357V13.2842H200.373ZM219.862 13.2842H226.435V35.0919H219.862V13.2842ZM242.556 13.1369V20.6789C240.463 19.0265 237.585 18.8302 235.705 19.7463C229.034 22.9529 235.476 33.1124 242.474 28.4171L242.441 35.2883C219.143 38.6748 223.966 7.42733 242.556 13.1369ZM243.439 13.2842C245.466 13.3005 247.804 13.2842 250.208 13.2515C254.786 13.186 259.151 13.6768 259.985 18.5357C260.247 20.0408 260.312 23.3946 258.906 24.3435L255.865 26.4212L260.296 35.3864L253.886 35.4519L249.357 27.959L249.488 35.3537L243.324 35.3864L243.439 13.2678V13.2842ZM249.554 17.8813C251.058 17.8322 252.366 17.7995 253.003 18.4539C254.704 20.2535 253.805 23.6727 249.603 22.9202L249.554 17.8813ZM261.211 13.595H276.139L276.073 19.141L267.195 19.0429L267.228 30.1676L276.057 30.2658L275.975 35.4846H261.211V13.5787V13.595ZM276.629 13.6768H295.056V19.3864H289.464L289.366 35.1083L282.597 35.1901L282.646 19.4846L276.597 19.3373V13.6768H276.629ZM296.315 13.595H311.308L311.177 19.141L302.299 19.0429L302.331 30.1676L311.406 30.2658L311.324 35.4846H296.315V13.5787V13.595ZM303.803 20.5153L308.986 25.1615L303.803 29.5787V20.5153Z" fill="#FEFEFE"></path><path d="M73.6257 35.1901V13.2024H86.8038L90.6788 23.8363L94.8644 13.2024H107.863V35.1901H99.6222V17.0306L94.1613 35.1901H87.2289L81.8334 17.0306V35.1901H73.6094H73.6257ZM117.182 35.2228V25.7341L107.127 13.2024H117.575L121.695 20.3844L126.077 13.2024H136.295L126.077 25.7341V35.2228H117.182ZM135.641 35.2556V13.2024H144.519V22.5112L152.694 13.2024H164.695L155.13 22.7893L165.644 35.2556H154.591L148.411 26.8466L144.536 29.2515V35.2556H135.641Z" fill="#FEFEFE"></path><path d="M0 0V48H59.7102V0H0Z" fill="#25292A"></path><path d="M50.8974 37.497C50.8974 38.3641 50.2107 39.0512 49.3605 39.0512H10.3494C9.4992 39.0512 8.8125 38.3477 8.8125 37.497V10.5195C8.8125 9.65245 9.4992 8.96533 10.3494 8.96533H49.3605C50.2107 8.96533 50.8974 9.66881 50.8974 10.5195V37.497Z" fill="#FEFEFE"></path><path d="M10.3984 28.8589H18.8514V37.4151H10.3984V28.8589Z" fill="#009ECC"></path><path d="M20.5 28.8752H29.0347V37.4315H20.5V28.8752Z" fill="#009ECC"></path><path d="M30.6875 28.8752H39.1404V37.4315H30.6875V28.8752Z" fill="#009ECC"></path><path d="M40.7734 28.8752H49.2754V37.4315H40.7734V28.8752Z" fill="#009ECC"></path><path d="M49.2787 20.3518H10.3984V27.6974H49.2787V20.3518Z" fill="#25292A"></path><path d="M14.604 26.6177V25.7506H12.7564V21.7097H11.9062V26.6177H14.6203H14.604ZM46.8952 24.2128L45.7834 23.4111V25.0308L46.8952 24.2128ZM44.5081 26.6177V21.7097H47.7781V22.5768H45.3583V25.7506H47.7781V26.6177H44.5081ZM42.3663 22.5768V26.6177H41.5161V22.5768H40.1264V21.7097H43.8214V22.5768H42.3663ZM38.3932 24.2128L37.2814 23.4111V25.0308L38.3932 24.2128ZM36.0225 26.6177V21.7097H39.2925V22.5768H36.889V25.7506H39.2925V26.6177H36.0225ZM33.5863 24.1473H31.6243V22.6586H33.5863C33.5863 22.6586 33.9133 22.5932 33.9133 23.3621C33.9133 24.131 33.5863 24.1473 33.5863 24.1473ZM33.9624 24.9163C33.9624 24.9163 34.8453 24.7199 34.8453 23.133C34.8453 21.7261 33.7008 21.7261 33.7008 21.7261H30.7741V26.6341H31.6243V24.9653H33.0141L34.1422 26.6341H35.1559L33.9624 24.9326V24.9163ZM26.6376 24.2128V25.2435C26.6376 25.996 27.2916 25.8815 27.2916 25.8815H28.5505C29.1064 25.8815 28.9756 25.2271 28.9756 25.2271H29.8258V25.7506C29.8258 26.7159 28.9429 26.6995 28.9429 26.6995H26.8665C25.7383 26.6995 25.771 25.3743 25.771 25.3743V23.0349C25.771 23.0349 25.7383 21.7097 26.8665 21.7097H28.9429C28.9429 21.7097 29.8258 21.7097 29.8258 22.6586V23.1821H28.9756C28.9756 23.1821 29.1064 22.5277 28.5505 22.5277H27.2916C27.2916 22.5277 26.6376 22.4132 26.6376 23.1657V24.1964V24.2128ZM24.6592 21.7097H23.8091V26.6177H24.6592V21.7097ZM21.6508 22.5768V26.6177H20.8006V22.5768H19.4109V21.7097H23.106V22.5768H21.6508ZM16.615 24.5073L17.3671 22.5277L18.1029 24.5073H16.615ZM17.9721 21.7097H16.7458L14.9964 26.6177H15.8466L16.288 25.3743H18.3972L18.8387 26.6177H19.6888L17.9557 21.7097H17.9721Z" fill="#FEFEFE"></path><path d="M10.3984 10.6013H18.8514V19.1903H10.3984V10.6013Z" fill="#009ECC"></path><path d="M20.5 10.6013H29.0511V19.1903H20.5V10.6013Z" fill="#009ECC"></path><path d="M30.6875 10.6013H39.1241V19.1903H30.6875V10.6013Z" fill="#009ECC"></path><path d="M40.7734 10.6013H49.2754V19.1903H40.7734V10.6013Z" fill="#009ECC"></path><path d="M52.1716 41.1289V40.589H52.5313C52.7111 40.589 52.9073 40.6217 52.9073 40.8508C52.9073 41.1289 52.7111 41.1452 52.4822 41.1452H52.1716V41.1289ZM52.1716 41.3416H52.4822L52.94 42.1105H53.2343L52.7438 41.3416C53.0054 41.3088 53.2016 41.178 53.2016 40.8508C53.2016 40.5072 53.0054 40.3436 52.5803 40.3436H51.9263V42.1105H52.1879V41.3416H52.1716ZM52.4822 42.7649C53.2997 42.7649 54.0028 42.1268 54.0028 41.227C54.0028 40.3272 53.2997 39.7056 52.4822 39.7056C51.6647 39.7056 50.9453 40.3436 50.9453 41.227C50.9453 42.1105 51.6484 42.7649 52.4822 42.7649ZM51.256 41.227C51.256 40.5072 51.7955 39.9673 52.4822 39.9673C53.1689 39.9673 53.7085 40.5072 53.7085 41.227C53.7085 41.9469 53.1689 42.5031 52.4822 42.5031C51.7955 42.5031 51.256 41.9632 51.256 41.227Z" fill="#FEFEFE"></path></g><defs><clipPath id="clip0_4656_2884"><rect width="327" height="48" fill="white"></rect></clipPath></defs></svg>